<svg xmlns="http://www.w3.org/2000/svg" xmlns:xlink="http://www.w3.org/1999/xlink" width="400" zoomAndPan="magnify" viewBox="0 0 300 74.999997" height="100" preserveAspectRatio="xMidYMid meet" version="1.0"><defs><g/><clipPath id="a78c50d168"><path d="M 4.191406 0.46875 L 66.441406 0.46875 L 66.441406 74.71875 L 4.191406 74.71875 Z M 4.191406 0.46875 " clip-rule="nonzero"/></clipPath></defs><path stroke-linecap="round" transform="matrix(0, -0.75, 0.75, 0, 84.254428, 74.525383)" fill="none" stroke-linejoin="miter" d="M 3.002595 2.999305 L 95.747394 2.999305 " stroke="#13d518" stroke-width="6" stroke-opacity="1" stroke-miterlimit="4"/><g clip-path="url(#a78c50d168)"><path fill="#13d518" d="M 17.738281 37.496094 C 17.738281 50.464844 28.289062 61.011719 41.257812 61.011719 L 41.257812 74.519531 C 39.4375 74.519531 37.625 74.386719 35.824219 74.117188 C 34.023438 73.851562 32.25 73.453125 30.507812 72.925781 C 28.765625 72.398438 27.074219 71.742188 25.425781 70.964844 C 23.78125 70.1875 22.199219 69.292969 20.6875 68.28125 C 19.171875 67.269531 17.742188 66.152344 16.390625 64.929688 C 15.042969 63.707031 13.792969 62.390625 12.636719 60.984375 C 11.480469 59.574219 10.433594 58.089844 9.5 56.53125 C 8.5625 54.96875 7.746094 53.347656 7.050781 51.664062 C 6.351562 49.980469 5.785156 48.257812 5.339844 46.492188 C 4.898438 44.726562 4.589844 42.9375 4.410156 41.125 C 4.230469 39.3125 4.1875 37.496094 4.277344 35.679688 C 4.367188 33.859375 4.585938 32.058594 4.941406 30.273438 C 5.296875 28.484375 5.78125 26.734375 6.394531 25.023438 C 7.007812 23.308594 7.746094 21.648438 8.601562 20.042969 C 9.460938 18.4375 10.433594 16.902344 11.515625 15.4375 C 12.601562 13.976562 13.789062 12.601562 15.074219 11.3125 C 16.488281 9.902344 18.007812 8.609375 19.632812 7.441406 C 21.253906 6.273438 22.960938 5.246094 24.753906 4.355469 C 26.542969 3.464844 28.394531 2.722656 30.304688 2.128906 C 32.214844 1.539062 34.160156 1.105469 36.140625 0.828125 C 38.121094 0.550781 40.109375 0.4375 42.109375 0.484375 C 44.109375 0.527344 46.089844 0.734375 48.058594 1.101562 C 50.023438 1.46875 51.945312 1.992188 53.828125 2.667969 C 55.707031 3.347656 57.523438 4.171875 59.269531 5.144531 L 52.691406 16.9375 C 49.132812 14.964844 45.324219 13.976562 41.257812 13.976562 C 28.289062 13.976562 17.738281 24.527344 17.738281 37.496094 Z M 58.851562 56.0625 C 58.359375 56.0625 57.871094 56.113281 57.386719 56.207031 C 56.902344 56.304688 56.433594 56.445312 55.980469 56.636719 C 55.523438 56.824219 55.089844 57.054688 54.679688 57.328125 C 54.273438 57.601562 53.894531 57.914062 53.542969 58.261719 C 53.195312 58.609375 52.882812 58.988281 52.609375 59.398438 C 52.335938 59.808594 52.105469 60.242188 51.917969 60.695312 C 51.730469 61.152344 51.585938 61.621094 51.488281 62.105469 C 51.394531 62.589844 51.347656 63.078125 51.347656 63.570312 C 51.347656 64.0625 51.394531 64.550781 51.488281 65.035156 C 51.585938 65.515625 51.730469 65.988281 51.917969 66.441406 C 52.105469 66.898438 52.335938 67.328125 52.609375 67.738281 C 52.882812 68.148438 53.195312 68.527344 53.542969 68.875 C 53.894531 69.226562 54.273438 69.535156 54.679688 69.808594 C 55.089844 70.085938 55.523438 70.316406 55.980469 70.503906 C 56.433594 70.691406 56.902344 70.835938 57.386719 70.929688 C 57.871094 71.027344 58.359375 71.074219 58.851562 71.074219 C 59.34375 71.074219 59.832031 71.027344 60.316406 70.929688 C 60.800781 70.835938 61.269531 70.691406 61.722656 70.503906 C 62.179688 70.316406 62.613281 70.085938 63.023438 69.808594 C 63.429688 69.535156 63.808594 69.226562 64.160156 68.875 C 64.507812 68.527344 64.820312 68.148438 65.09375 67.738281 C 65.367188 67.328125 65.597656 66.898438 65.785156 66.441406 C 65.976562 65.988281 66.117188 65.515625 66.214844 65.035156 C 66.308594 64.550781 66.355469 64.0625 66.359375 63.570312 C 66.359375 63.078125 66.308594 62.589844 66.214844 62.105469 C 66.117188 61.621094 65.976562 61.152344 65.785156 60.695312 C 65.597656 60.242188 65.367188 59.808594 65.09375 59.398438 C 64.820312 58.988281 64.507812 58.609375 64.160156 58.261719 C 63.8125 57.914062 63.429688 57.601562 63.023438 57.328125 C 62.613281 57.054688 62.179688 56.824219 61.722656 56.636719 C 61.269531 56.445312 60.800781 56.304688 60.316406 56.207031 C 59.832031 56.113281 59.34375 56.0625 58.851562 56.0625 Z M 58.851562 56.0625 " fill-opacity="1" fill-rule="nonzero"/></g><g fill="#13d518" fill-opacity="1"><g transform="translate(108.807451, 36.647531)"><g><path d="M 12.609375 -22.375 C 14.253906 -22.375 15.875 -22.035156 17.46875 -21.359375 C 19.070312 -20.679688 20.429688 -19.769531 21.546875 -18.625 L 18.28125 -14.765625 C 17.5625 -15.648438 16.703125 -16.351562 15.703125 -16.875 C 14.703125 -17.394531 13.703125 -17.65625 12.703125 -17.65625 C 10.953125 -17.65625 9.484375 -17.035156 8.296875 -15.796875 C 7.117188 -14.554688 6.53125 -13.03125 6.53125 -11.21875 C 6.53125 -9.351562 7.117188 -7.796875 8.296875 -6.546875 C 9.484375 -5.304688 10.953125 -4.6875 12.703125 -4.6875 C 13.628906 -4.6875 14.59375 -4.914062 15.59375 -5.375 C 16.601562 -5.84375 17.5 -6.476562 18.28125 -7.28125 L 21.578125 -3.796875 C 20.367188 -2.578125 18.945312 -1.597656 17.3125 -0.859375 C 15.675781 -0.117188 14.046875 0.25 12.421875 0.25 C 9.085938 0.25 6.3125 -0.835938 4.09375 -3.015625 C 1.875 -5.191406 0.765625 -7.90625 0.765625 -11.15625 C 0.765625 -14.34375 1.894531 -17.007812 4.15625 -19.15625 C 6.414062 -21.300781 9.234375 -22.375 12.609375 -22.375 Z M 12.609375 -22.375 "/></g></g></g><g fill="#13d518" fill-opacity="1"><g transform="translate(134.88482, 36.647531)"><g><path d="M 12.734375 -22.375 C 16.179688 -22.375 19.046875 -21.300781 21.328125 -19.15625 C 23.609375 -17.007812 24.75 -14.332031 24.75 -11.125 C 24.75 -7.894531 23.601562 -5.191406 21.3125 -3.015625 C 19.019531 -0.835938 16.160156 0.25 12.734375 0.25 C 9.316406 0.25 6.46875 -0.832031 4.1875 -3 C 1.90625 -5.164062 0.765625 -7.875 0.765625 -11.125 C 0.765625 -14.351562 1.90625 -17.035156 4.1875 -19.171875 C 6.46875 -21.304688 9.316406 -22.375 12.734375 -22.375 Z M 12.796875 -17.65625 C 11.066406 -17.65625 9.585938 -17.023438 8.359375 -15.765625 C 7.140625 -14.503906 6.53125 -12.941406 6.53125 -11.078125 C 6.53125 -9.222656 7.144531 -7.65625 8.375 -6.375 C 9.613281 -5.101562 11.085938 -4.46875 12.796875 -4.46875 C 14.515625 -4.46875 15.96875 -5.101562 17.15625 -6.375 C 18.351562 -7.65625 18.953125 -9.222656 18.953125 -11.078125 C 18.953125 -12.941406 18.351562 -14.503906 17.15625 -15.765625 C 15.96875 -17.023438 14.515625 -17.65625 12.796875 -17.65625 Z M 12.796875 -17.65625 "/></g></g></g><g fill="#13d518" fill-opacity="1"><g transform="translate(164.542553, 36.647531)"><g><path d="M 22.6875 0 L 17.71875 0 L 7.515625 -13.65625 L 7.515625 0 L 2.21875 0 L 2.21875 -22.1875 L 7.1875 -22.1875 L 17.421875 -8.5 L 17.421875 -22.1875 L 22.6875 -22.1875 Z M 22.6875 0 "/></g></g></g><g fill="#13d518" fill-opacity="1"><g transform="translate(193.598282, 36.647531)"><g><path d="M 22.6875 0 L 17.71875 0 L 7.515625 -13.65625 L 7.515625 0 L 2.21875 0 L 2.21875 -22.1875 L 7.1875 -22.1875 L 17.421875 -8.5 L 17.421875 -22.1875 L 22.6875 -22.1875 Z M 22.6875 0 "/></g></g></g><g fill="#13d518" fill-opacity="1"><g transform="translate(222.654012, 36.647531)"><g><path d="M 19.578125 -17.75 L 7.859375 -17.75 L 7.859375 -13.34375 L 18.4375 -13.34375 L 18.4375 -8.90625 L 7.859375 -8.90625 L 7.859375 -4.4375 L 19.9375 -4.4375 L 19.9375 0 L 2.21875 0 L 2.21875 -22.1875 L 19.578125 -22.1875 Z M 19.578125 -17.75 "/></g></g></g><g fill="#13d518" fill-opacity="1"><g transform="translate(248.16105, 36.647531)"><g><path d="M 12.609375 -22.375 C 14.253906 -22.375 15.875 -22.035156 17.46875 -21.359375 C 19.070312 -20.679688 20.429688 -19.769531 21.546875 -18.625 L 18.28125 -14.765625 C 17.5625 -15.648438 16.703125 -16.351562 15.703125 -16.875 C 14.703125 -17.394531 13.703125 -17.65625 12.703125 -17.65625 C 10.953125 -17.65625 9.484375 -17.035156 8.296875 -15.796875 C 7.117188 -14.554688 6.53125 -13.03125 6.53125 -11.21875 C 6.53125 -9.351562 7.117188 -7.796875 8.296875 -6.546875 C 9.484375 -5.304688 10.953125 -4.6875 12.703125 -4.6875 C 13.628906 -4.6875 14.59375 -4.914062 15.59375 -5.375 C 16.601562 -5.84375 17.5 -6.476562 18.28125 -7.28125 L 21.578125 -3.796875 C 20.367188 -2.578125 18.945312 -1.597656 17.3125 -0.859375 C 15.675781 -0.117188 14.046875 0.25 12.421875 0.25 C 9.085938 0.25 6.3125 -0.835938 4.09375 -3.015625 C 1.875 -5.191406 0.765625 -7.90625 0.765625 -11.15625 C 0.765625 -14.34375 1.894531 -17.007812 4.15625 -19.15625 C 6.414062 -21.300781 9.234375 -22.375 12.609375 -22.375 Z M 12.609375 -22.375 "/></g></g></g><g fill="#13d518" fill-opacity="1"><g transform="translate(274.238424, 36.647531)"><g><path d="M 19.171875 -17.65625 L 12.484375 -17.65625 L 12.484375 0 L 6.84375 0 L 6.84375 -17.65625 L 0.21875 -17.65625 L 0.21875 -22.21875 L 19.171875 -22.21875 Z M 19.171875 -17.65625 "/></g></g></g><g fill="#13d518" fill-opacity="1"><g transform="translate(108.83073, 63.023467)"><g><path d="M 1.9375 -19.328125 L 11.078125 -19.328125 C 13.242188 -19.328125 14.96875 -18.890625 16.25 -18.015625 C 17.53125 -17.140625 18.171875 -15.96875 18.171875 -14.5 C 18.171875 -13.476562 17.875 -12.585938 17.28125 -11.828125 C 16.695312 -11.066406 15.890625 -10.539062 14.859375 -10.25 C 16.066406 -10.007812 17.03125 -9.445312 17.75 -8.5625 C 18.46875 -7.675781 18.828125 -6.609375 18.828125 -5.359375 C 18.828125 -3.722656 18.160156 -2.421875 16.828125 -1.453125 C 15.492188 -0.484375 13.6875 0 11.40625 0 L 1.9375 0 Z M 6.8125 -15.578125 L 6.8125 -11.59375 L 10.796875 -11.59375 C 11.515625 -11.59375 12.082031 -11.769531 12.5 -12.125 C 12.925781 -12.488281 13.140625 -12.984375 13.140625 -13.609375 C 13.140625 -14.210938 12.925781 -14.691406 12.5 -15.046875 C 12.082031 -15.398438 11.515625 -15.578125 10.796875 -15.578125 Z M 6.8125 -8.0625 L 6.8125 -3.78125 L 10.796875 -3.78125 C 11.710938 -3.78125 12.429688 -3.972656 12.953125 -4.359375 C 13.484375 -4.742188 13.75 -5.28125 13.75 -5.96875 C 13.75 -6.613281 13.484375 -7.125 12.953125 -7.5 C 12.429688 -7.875 11.710938 -8.0625 10.796875 -8.0625 Z M 6.8125 -8.0625 "/></g></g></g><g fill="#13d518" fill-opacity="1"><g transform="translate(132.190737, 63.023467)"><g><path d="M 14.765625 -3.5625 L 6.328125 -3.5625 L 4.921875 0 L -0.140625 0 L 8.203125 -19.328125 L 13.25 -19.328125 L 21.390625 0 L 16.15625 0 Z M 13.328125 -7.28125 L 10.578125 -14.4375 L 7.765625 -7.28125 Z M 13.328125 -7.28125 "/></g></g></g><g fill="#13d518" fill-opacity="1"><g transform="translate(157.06937, 63.023467)"><g><path d="M 19.765625 0 L 15.4375 0 L 6.546875 -11.90625 L 6.546875 0 L 1.9375 0 L 1.9375 -19.328125 L 6.265625 -19.328125 L 15.1875 -7.40625 L 15.1875 -19.328125 L 19.765625 -19.328125 Z M 19.765625 0 "/></g></g></g><g fill="#13d518" fill-opacity="1"><g transform="translate(182.389789, 63.023467)"><g><path d="M 14.515625 0 L 9.421875 -7.59375 L 6.84375 -4.75 L 6.84375 0 L 1.9375 0 L 1.9375 -19.328125 L 6.84375 -19.328125 L 6.84375 -10.953125 L 14.25 -19.328125 L 19.9375 -19.328125 L 12.75 -11.3125 L 20.40625 0 Z M 14.515625 0 "/></g></g></g></svg>