<svg xmlns="http://www.w3.org/2000/svg" xmlns:xlink="http://www.w3.org/1999/xlink" width="500" zoomAndPan="magnify" viewBox="0 0 375 374.999991" height="500" preserveAspectRatio="xMidYMid meet" version="1.0"><defs><g/><clipPath id="c859c1970e"><path d="M 5.433594 140.570312 L 84.183594 140.570312 L 84.183594 234.320312 L 5.433594 234.320312 Z M 5.433594 140.570312 " clip-rule="nonzero"/></clipPath></defs><path stroke-linecap="round" transform="matrix(0, -0.75, 0.75, 0, 107.129105, 234.42772)" fill="none" stroke-linejoin="miter" d="M 3.502585 3.499736 L 121.643218 3.499736 " stroke="#13d518" stroke-width="7" stroke-opacity="1" stroke-miterlimit="4"/><g clip-path="url(#c859c1970e)"><path fill="#13d518" d="M 22.601562 187.5 C 22.601562 203.933594 35.972656 217.304688 52.40625 217.304688 L 52.40625 234.425781 C 50.101562 234.425781 47.804688 234.257812 45.523438 233.917969 C 43.238281 233.578125 40.992188 233.074219 38.785156 232.40625 C 36.578125 231.734375 34.429688 230.90625 32.34375 229.921875 C 30.257812 228.933594 28.253906 227.800781 26.335938 226.515625 C 24.417969 225.234375 22.601562 223.820312 20.894531 222.269531 C 19.183594 220.71875 17.597656 219.050781 16.132812 217.269531 C 14.667969 215.484375 13.34375 213.601562 12.15625 211.625 C 10.96875 209.644531 9.9375 207.589844 9.054688 205.457031 C 8.167969 203.324219 7.449219 201.140625 6.886719 198.902344 C 6.328125 196.664062 5.933594 194.394531 5.707031 192.097656 C 5.480469 189.800781 5.421875 187.5 5.535156 185.195312 C 5.648438 182.890625 5.933594 180.605469 6.382812 178.34375 C 6.832031 176.082031 7.445312 173.863281 8.222656 171.691406 C 9 169.515625 9.933594 167.414062 11.019531 165.378906 C 12.109375 163.34375 13.339844 161.398438 14.714844 159.542969 C 16.089844 157.691406 17.59375 155.949219 19.222656 154.316406 C 20.117188 153.421875 21.046875 152.566406 22.011719 151.746094 C 22.976562 150.925781 23.972656 150.148438 25 149.410156 C 26.027344 148.671875 27.082031 147.972656 28.164062 147.320312 C 29.25 146.667969 30.355469 146.058594 31.488281 145.496094 C 32.621094 144.929688 33.777344 144.414062 34.949219 143.945312 C 36.125 143.472656 37.316406 143.050781 38.523438 142.675781 C 39.734375 142.300781 40.957031 141.976562 42.191406 141.703125 C 43.425781 141.425781 44.667969 141.199219 45.921875 141.027344 C 47.175781 140.851562 48.433594 140.726562 49.695312 140.652344 C 50.960938 140.582031 52.222656 140.558594 53.488281 140.585938 C 54.753906 140.617188 56.015625 140.695312 57.273438 140.828125 C 58.53125 140.957031 59.78125 141.140625 61.027344 141.371094 C 62.269531 141.605469 63.503906 141.886719 64.722656 142.21875 C 65.945312 142.550781 67.148438 142.929688 68.339844 143.359375 C 69.53125 143.789062 70.703125 144.265625 71.851562 144.789062 C 73.003906 145.3125 74.132812 145.882812 75.238281 146.496094 L 66.898438 161.445312 C 64.683594 160.214844 62.347656 159.28125 59.890625 158.644531 C 57.4375 158.007812 54.941406 157.691406 52.40625 157.691406 C 35.972656 157.691406 22.601562 171.0625 22.601562 187.5 Z M 74.707031 211.035156 C 74.082031 211.035156 73.464844 211.09375 72.851562 211.214844 C 72.238281 211.339844 71.644531 211.519531 71.066406 211.757812 C 70.492188 211.996094 69.941406 212.289062 69.421875 212.636719 C 68.902344 212.984375 68.421875 213.378906 67.980469 213.820312 C 67.539062 214.261719 67.144531 214.742188 66.796875 215.261719 C 66.453125 215.78125 66.160156 216.328125 65.917969 216.90625 C 65.679688 217.484375 65.5 218.078125 65.378906 218.691406 C 65.257812 219.304688 65.195312 219.921875 65.195312 220.546875 C 65.195312 221.171875 65.257812 221.789062 65.378906 222.402344 C 65.5 223.015625 65.679688 223.609375 65.917969 224.1875 C 66.160156 224.765625 66.453125 225.3125 66.796875 225.832031 C 67.144531 226.351562 67.539062 226.832031 67.980469 227.273438 C 68.421875 227.714844 68.902344 228.109375 69.421875 228.457031 C 69.941406 228.804688 70.492188 229.097656 71.066406 229.335938 C 71.644531 229.574219 72.238281 229.753906 72.851562 229.878906 C 73.464844 230 74.082031 230.058594 74.707031 230.058594 C 75.332031 230.058594 75.953125 230 76.5625 229.878906 C 77.175781 229.753906 77.773438 229.574219 78.347656 229.335938 C 78.925781 229.097656 79.472656 228.804688 79.992188 228.457031 C 80.511719 228.109375 80.992188 227.714844 81.433594 227.273438 C 81.875 226.832031 82.269531 226.351562 82.617188 225.832031 C 82.964844 225.3125 83.257812 224.765625 83.496094 224.1875 C 83.738281 223.609375 83.917969 223.015625 84.039062 222.402344 C 84.160156 221.789062 84.222656 221.171875 84.222656 220.546875 C 84.222656 219.921875 84.160156 219.304688 84.039062 218.691406 C 83.917969 218.078125 83.738281 217.484375 83.496094 216.90625 C 83.257812 216.328125 82.964844 215.78125 82.617188 215.261719 C 82.269531 214.742188 81.878906 214.261719 81.433594 213.820312 C 80.992188 213.378906 80.511719 212.984375 79.992188 212.636719 C 79.472656 212.289062 78.925781 211.996094 78.347656 211.757812 C 77.773438 211.519531 77.175781 211.339844 76.5625 211.214844 C 75.953125 211.09375 75.332031 211.035156 74.707031 211.035156 Z M 74.707031 211.035156 " fill-opacity="1" fill-rule="nonzero"/></g><g fill="#13d518" fill-opacity="1"><g transform="translate(138.013679, 186.419659)"><g><path d="M 15.984375 -28.34375 C 18.066406 -28.34375 20.117188 -27.914062 22.140625 -27.0625 C 24.160156 -26.207031 25.882812 -25.054688 27.3125 -23.609375 L 23.171875 -18.71875 C 22.265625 -19.84375 21.171875 -20.726562 19.890625 -21.375 C 18.617188 -22.03125 17.359375 -22.359375 16.109375 -22.359375 C 13.878906 -22.359375 12.015625 -21.578125 10.515625 -20.015625 C 9.015625 -18.453125 8.265625 -16.519531 8.265625 -14.21875 C 8.265625 -11.863281 9.015625 -9.894531 10.515625 -8.3125 C 12.015625 -6.726562 13.878906 -5.9375 16.109375 -5.9375 C 17.285156 -5.9375 18.507812 -6.226562 19.78125 -6.8125 C 21.050781 -7.40625 22.179688 -8.210938 23.171875 -9.234375 L 27.34375 -4.8125 C 25.820312 -3.257812 24.019531 -2.015625 21.9375 -1.078125 C 19.863281 -0.140625 17.796875 0.328125 15.734375 0.328125 C 11.503906 0.328125 7.984375 -1.050781 5.171875 -3.8125 C 2.367188 -6.570312 0.96875 -10.015625 0.96875 -14.140625 C 0.96875 -18.179688 2.398438 -21.554688 5.265625 -24.265625 C 8.128906 -26.984375 11.703125 -28.34375 15.984375 -28.34375 Z M 15.984375 -28.34375 "/></g></g></g><g fill="#13d518" fill-opacity="1"><g transform="translate(171.061713, 186.419659)"><g><path d="M 16.140625 -28.34375 C 20.503906 -28.34375 24.128906 -26.984375 27.015625 -24.265625 C 29.910156 -21.554688 31.359375 -18.164062 31.359375 -14.09375 C 31.359375 -10 29.90625 -6.570312 27 -3.8125 C 24.09375 -1.050781 20.472656 0.328125 16.140625 0.328125 C 11.804688 0.328125 8.191406 -1.039062 5.296875 -3.78125 C 2.410156 -6.53125 0.96875 -9.96875 0.96875 -14.09375 C 0.96875 -18.1875 2.410156 -21.582031 5.296875 -24.28125 C 8.191406 -26.988281 11.804688 -28.34375 16.140625 -28.34375 Z M 16.21875 -22.359375 C 14.03125 -22.359375 12.15625 -21.5625 10.59375 -19.96875 C 9.039062 -18.382812 8.265625 -16.410156 8.265625 -14.046875 C 8.265625 -11.691406 9.046875 -9.703125 10.609375 -8.078125 C 12.179688 -6.460938 14.050781 -5.65625 16.21875 -5.65625 C 18.382812 -5.65625 20.222656 -6.460938 21.734375 -8.078125 C 23.253906 -9.703125 24.015625 -11.691406 24.015625 -14.046875 C 24.015625 -16.410156 23.253906 -18.382812 21.734375 -19.96875 C 20.222656 -21.5625 18.382812 -22.359375 16.21875 -22.359375 Z M 16.21875 -22.359375 "/></g></g></g><g fill="#13d518" fill-opacity="1"><g transform="translate(208.647168, 186.419659)"><g><path d="M 28.75 0 L 22.453125 0 L 9.515625 -17.3125 L 9.515625 0 L 2.8125 0 L 2.8125 -28.109375 L 9.109375 -28.109375 L 22.09375 -10.765625 L 22.09375 -28.109375 L 28.75 -28.109375 Z M 28.75 0 "/></g></g></g><g fill="#13d518" fill-opacity="1"><g transform="translate(245.4697, 186.419659)"><g><path d="M 28.75 0 L 22.453125 0 L 9.515625 -17.3125 L 9.515625 0 L 2.8125 0 L 2.8125 -28.109375 L 9.109375 -28.109375 L 22.09375 -10.765625 L 22.09375 -28.109375 L 28.75 -28.109375 Z M 28.75 0 "/></g></g></g><g fill="#13d518" fill-opacity="1"><g transform="translate(282.292232, 186.419659)"><g><path d="M 24.8125 -22.484375 L 9.953125 -22.484375 L 9.953125 -16.90625 L 23.375 -16.90625 L 23.375 -11.28125 L 9.953125 -11.28125 L 9.953125 -5.625 L 25.265625 -5.625 L 25.265625 0 L 2.8125 0 L 2.8125 -28.109375 L 24.8125 -28.109375 Z M 24.8125 -22.484375 "/></g></g></g><g fill="#13d518" fill-opacity="1"><g transform="translate(314.617482, 186.419659)"><g><path d="M 15.984375 -28.34375 C 18.066406 -28.34375 20.117188 -27.914062 22.140625 -27.0625 C 24.160156 -26.207031 25.882812 -25.054688 27.3125 -23.609375 L 23.171875 -18.71875 C 22.265625 -19.84375 21.171875 -20.726562 19.890625 -21.375 C 18.617188 -22.03125 17.359375 -22.359375 16.109375 -22.359375 C 13.878906 -22.359375 12.015625 -21.578125 10.515625 -20.015625 C 9.015625 -18.453125 8.265625 -16.519531 8.265625 -14.21875 C 8.265625 -11.863281 9.015625 -9.894531 10.515625 -8.3125 C 12.015625 -6.726562 13.878906 -5.9375 16.109375 -5.9375 C 17.285156 -5.9375 18.507812 -6.226562 19.78125 -6.8125 C 21.050781 -7.40625 22.179688 -8.210938 23.171875 -9.234375 L 27.34375 -4.8125 C 25.820312 -3.257812 24.019531 -2.015625 21.9375 -1.078125 C 19.863281 -0.140625 17.796875 0.328125 15.734375 0.328125 C 11.503906 0.328125 7.984375 -1.050781 5.171875 -3.8125 C 2.367188 -6.570312 0.96875 -10.015625 0.96875 -14.140625 C 0.96875 -18.179688 2.398438 -21.554688 5.265625 -24.265625 C 8.128906 -26.984375 11.703125 -28.34375 15.984375 -28.34375 Z M 15.984375 -28.34375 "/></g></g></g><g fill="#13d518" fill-opacity="1"><g transform="translate(347.665523, 186.419659)"><g><path d="M 24.296875 -22.359375 L 15.828125 -22.359375 L 15.828125 0 L 8.671875 0 L 8.671875 -22.359375 L 0.28125 -22.359375 L 0.28125 -28.15625 L 24.296875 -28.15625 Z M 24.296875 -22.359375 "/></g></g></g><g fill="#13d518" fill-opacity="1"><g transform="translate(138.043195, 219.846065)"><g><path d="M 2.453125 -24.5 L 14.03125 -24.5 C 16.789062 -24.5 18.976562 -23.941406 20.59375 -22.828125 C 22.21875 -21.722656 23.03125 -20.238281 23.03125 -18.375 C 23.03125 -17.09375 22.65625 -15.96875 21.90625 -15 C 21.164062 -14.03125 20.140625 -13.359375 18.828125 -12.984375 C 20.367188 -12.679688 21.59375 -11.96875 22.5 -10.84375 C 23.414062 -9.726562 23.875 -8.378906 23.875 -6.796875 C 23.875 -4.710938 23.023438 -3.054688 21.328125 -1.828125 C 19.640625 -0.609375 17.347656 0 14.453125 0 L 2.453125 0 Z M 8.640625 -19.734375 L 8.640625 -14.703125 L 13.6875 -14.703125 C 14.59375 -14.703125 15.3125 -14.925781 15.84375 -15.375 C 16.382812 -15.832031 16.65625 -16.457031 16.65625 -17.25 C 16.65625 -18.019531 16.382812 -18.625 15.84375 -19.0625 C 15.3125 -19.507812 14.59375 -19.734375 13.6875 -19.734375 Z M 8.640625 -10.21875 L 8.640625 -4.796875 L 13.6875 -4.796875 C 14.851562 -4.796875 15.769531 -5.039062 16.4375 -5.53125 C 17.101562 -6.019531 17.4375 -6.695312 17.4375 -7.5625 C 17.4375 -8.375 17.101562 -9.019531 16.4375 -9.5 C 15.769531 -9.976562 14.851562 -10.21875 13.6875 -10.21875 Z M 8.640625 -10.21875 "/></g></g></g><g fill="#13d518" fill-opacity="1"><g transform="translate(167.647496, 219.846065)"><g><path d="M 18.71875 -4.515625 L 8.015625 -4.515625 L 6.234375 0 L -0.171875 0 L 10.390625 -24.5 L 16.796875 -24.5 L 27.125 0 L 20.46875 0 Z M 16.90625 -9.234375 L 13.40625 -18.3125 L 9.828125 -9.234375 Z M 16.90625 -9.234375 "/></g></g></g><g fill="#13d518" fill-opacity="1"><g transform="translate(199.176361, 219.846065)"><g><path d="M 25.0625 0 L 19.5625 0 L 8.296875 -15.078125 L 8.296875 0 L 2.453125 0 L 2.453125 -24.5 L 7.9375 -24.5 L 19.25 -9.375 L 19.25 -24.5 L 25.0625 -24.5 Z M 25.0625 0 "/></g></g></g><g fill="#13d518" fill-opacity="1"><g transform="translate(231.265106, 219.846065)"><g><path d="M 18.40625 0 L 11.9375 -9.625 L 8.6875 -6.015625 L 8.6875 0 L 2.453125 0 L 2.453125 -24.5 L 8.6875 -24.5 L 8.6875 -13.890625 L 18.0625 -24.5 L 25.265625 -24.5 L 16.171875 -14.34375 L 25.859375 0 Z M 18.40625 0 "/></g></g></g></svg>